<svg width="166" height="164" viewBox="0 0 166 164" fill="none" xmlns="http://www.w3.org/2000/svg">
<path d="M83.0127 162.899C95.7916 162.899 106.151 126.679 106.151 82.0001C106.151 37.3208 95.7916 1.10107 83.0127 1.10107C70.2338 1.10107 59.8745 37.3208 59.8745 82.0001C59.8745 126.679 70.2338 162.899 83.0127 162.899Z" stroke="#164194" stroke-width="2" stroke-miterlimit="10"/>
<path d="M94.5949 102.027C133.26 79.6422 159.415 52.5312 153.013 41.4723C146.61 30.4135 110.076 39.5946 71.4104 61.9789C32.7449 84.3632 6.59042 111.474 12.9926 122.533C19.3949 133.592 55.9294 124.411 94.5949 102.027Z" stroke="#164194" stroke-width="2" stroke-miterlimit="10"/>
<path d="M153.007 122.533C159.409 111.474 133.254 84.3627 94.589 61.9784C55.9236 39.594 19.389 30.4129 12.9868 41.4718C6.58456 52.5306 32.7391 79.6417 71.4045 102.026C110.07 124.41 146.605 133.591 153.007 122.533Z" stroke="#164194" stroke-width="2" stroke-miterlimit="10"/>
<circle cx="41.3945" cy="40.1011" r="8" fill="#3366FF"/>
<circle cx="83.3945" cy="83.1011" r="8" fill="#3366FF"/>
</svg>
